<svg width="18" height="15" viewBox="0 0 18 15" fill="none" xmlns="http://www.w3.org/2000/svg">
<path d="M7.02852 1.30734C7.21859 1.11519 7.45296 0.97322 7.71079 0.894036C7.96863 0.814852 8.24193 0.800913 8.50642 0.853458C8.77091 0.906003 9.01837 1.0234 9.22683 1.19522C9.43528 1.36704 9.59826 1.58796 9.70128 1.83833C9.8043 2.08871 9.84417 2.36078 9.81734 2.63037C9.7905 2.89996 9.69781 3.15871 9.54748 3.38362C9.39716 3.60853 9.19387 3.79263 8.95568 3.91956C8.71749 4.04648 8.45179 4.11231 8.18218 4.11117H0.818359M9.48313 13.4929C9.6732 13.685 9.90757 13.827 10.1654 13.9062C10.4232 13.9854 10.6965 13.9993 10.961 13.9468C11.2255 13.8942 11.473 13.7768 11.6814 13.605C11.8899 13.4332 12.0529 13.2123 12.1559 12.9619C12.2589 12.7115 12.2988 12.4394 12.2719 12.1699C12.2451 11.9003 12.1524 11.6415 12.0021 11.4166C11.8518 11.1917 11.6485 11.0076 11.4103 10.8807C11.1721 10.7537 10.9064 10.6879 10.6368 10.6891H0.818359M13.6887 3.88916C13.9267 3.65062 14.2195 3.47469 14.5412 3.37692C14.8629 3.27915 15.2037 3.26257 15.5333 3.32863C15.8629 3.3947 16.1713 3.54137 16.4311 3.75569C16.6909 3.97 16.8941 4.24536 17.0228 4.55739C17.1516 4.86942 17.2018 5.20852 17.169 5.54469C17.1363 5.88087 17.0216 6.20375 16.8352 6.4848C16.6487 6.76584 16.3962 6.99638 16.1 7.15603C15.8038 7.31568 15.473 7.39951 15.1369 7.40011H0.818359" stroke="black" stroke-width="2" stroke-linecap="round" stroke-linejoin="round"/>
</svg>
